<?xml version="1.0" encoding="utf-8"?>
<!-- Generator: Adobe Illustrator 26.2.1, SVG Export Plug-In . SVG Version: 6.00 Build 0)  -->
<svg version="1.1" id="a" xmlns="http://www.w3.org/2000/svg" xmlns:xlink="http://www.w3.org/1999/xlink" x="0px" y="0px"
	 viewBox="0 0 356 162" style="enable-background:new 0 0 356 162;" xml:space="preserve">
<style type="text/css">
	.st0{opacity:0.8;fill:#8654CC;}
	.st1{fill:#FF6262;}
	.st2{fill:#8654CC;}
	.st3{fill:#FFE3C7;}
</style>
<path shape-rendering="crispEdges" class="st0" d="M27,10h300.7c14.9,0,27,12.1,27,27v98c0,14.9-12.1,27-27,27H27
	c-14.9,0-27-12.1-27-27V37C0,22.1,12.1,10,27,10z"/>
<path shape-rendering="crispEdges" class="st1" d="M27,0h300.7c14.9,0,27,12.1,27,27v98c0,14.9-12.1,27-27,27H27
	c-14.9,0-27-12.1-27-27V27C0,12.1,12.1,0,27,0z"/>
<g>
	<polygon class="st2" points="300,107.2 287.1,107.2 287.1,133 312.9,133 312.9,120.1 300,120.1 	"/>
	<polygon class="st2" points="261.3,68.5 248.4,68.5 248.4,55.7 235.5,55.7 235.5,81.4 261.3,81.4 	"/>
	<polygon class="st2" points="209.7,55.7 196.9,55.7 196.9,42.8 158.2,42.8 158.2,55.7 184,55.7 184,68.5 196.9,68.5 196.9,120.1 
		209.7,120.1 209.7,107.2 222.6,107.2 222.6,68.5 209.7,68.5 	"/>
	<polygon class="st2" points="171.1,107.2 158.2,107.2 158.2,55.7 145.3,55.7 145.3,68.5 132.4,68.5 132.4,107.2 145.3,107.2 
		145.3,120.1 158.2,120.1 158.2,133 196.9,133 196.9,120.1 171.1,120.1 	"/>
	<polygon class="st2" points="261.3,68.5 274.2,68.5 274.2,42.8 248.4,42.8 248.4,55.7 261.3,55.7 	"/>
	<polygon class="st2" points="106.6,68.5 55.1,68.5 55.1,55.7 106.6,55.7 106.6,42.8 29.3,42.8 29.3,81.4 93.7,81.4 93.7,120.1 
		55.1,120.1 55.1,107.2 29.3,107.2 29.3,120.1 42.2,120.1 42.2,133 106.6,133 106.6,120.1 119.5,120.1 119.5,81.4 106.6,81.4 	"/>
	<rect x="274.2" y="81.4" class="st2" width="12.9" height="12.9"/>
	<rect x="300" y="55.7" class="st2" width="12.9" height="12.9"/>
	<polygon class="st2" points="300,107.2 312.9,107.2 312.9,120.1 325.8,120.1 325.8,94.3 300,94.3 	"/>
	<rect x="312.9" y="42.8" class="st2" width="12.9" height="12.9"/>
	<rect x="287.1" y="68.5" class="st2" width="12.9" height="12.9"/>
	<rect x="235.5" y="120.1" class="st2" width="12.9" height="12.9"/>
	<rect x="261.3" y="94.3" class="st2" width="12.9" height="12.9"/>
	<rect x="248.4" y="107.2" class="st2" width="12.9" height="12.9"/>
</g>
<g>
	<polygon class="st3" points="300,88.9 287.1,88.9 287.1,114.7 312.9,114.7 312.9,101.8 300,101.8 	"/>
	<polygon class="st3" points="209.7,37.3 196.9,37.3 196.9,24.4 158.2,24.4 158.2,37.3 184,37.3 184,50.2 196.9,50.2 196.9,101.8 
		209.7,101.8 209.7,88.9 222.6,88.9 222.6,50.2 209.7,50.2 	"/>
	<polygon class="st3" points="106.6,50.2 55.1,50.2 55.1,37.3 106.6,37.3 106.6,24.4 29.3,24.4 29.3,63.1 93.7,63.1 93.7,101.8 
		55.1,101.8 55.1,88.9 29.3,88.9 29.3,101.8 42.2,101.8 42.2,114.7 106.6,114.7 106.6,101.8 119.5,101.8 119.5,63.1 106.6,63.1 	"/>
	<polygon class="st3" points="261.3,50.2 274.2,50.2 274.2,24.4 248.4,24.4 248.4,37.3 261.3,37.3 	"/>
	<polygon class="st3" points="261.3,50.2 248.4,50.2 248.4,37.3 235.5,37.3 235.5,63.1 261.3,63.1 	"/>
	<polygon class="st3" points="171.1,88.9 158.2,88.9 158.2,37.3 145.3,37.3 145.3,50.2 132.4,50.2 132.4,88.9 145.3,88.9 
		145.3,101.8 158.2,101.8 158.2,114.7 196.9,114.7 196.9,101.8 171.1,101.8 	"/>
	<rect x="300" y="37.3" class="st3" width="12.9" height="12.9"/>
	<rect x="287.1" y="50.2" class="st3" width="12.9" height="12.9"/>
	<rect x="274.2" y="63.1" class="st3" width="12.9" height="12.9"/>
	<rect x="312.9" y="24.4" class="st3" width="12.9" height="12.9"/>
	<polygon class="st3" points="300,88.9 312.9,88.9 312.9,101.8 325.8,101.8 325.8,76 300,76 	"/>
	<rect x="261.3" y="76" class="st3" width="12.9" height="12.9"/>
	<rect x="235.5" y="101.8" class="st3" width="12.9" height="12.9"/>
	<rect x="248.4" y="88.9" class="st3" width="12.9" height="12.9"/>
</g>
</svg>
