<?xml version="1.0" encoding="UTF-8"?><svg id="a" xmlns="http://www.w3.org/2000/svg" width="765" height="580" viewBox="0 0 765 580"><defs><style>.b{fill:#fff;}.c{fill:#343434;}</style></defs><g><path class="b" d="M328.69,.5l18.18,24.12h-64L264.69,.5h64Z"/><path class="c" d="M346.87,24.62l18.18,24.12h-64l-18.18-24.12h64Z"/><path class="b" d="M365.05,48.75l18.18,24.12h-64l-18.18-24.12h64Z"/><path class="c" d="M383.23,72.88l18.18,24.12h-64l-18.18-24.12h64Z"/><path class="b" d="M401.41,97l18.18,24.12h-64l-18.18-24.12h64Z"/><path class="c" d="M419.59,121.12l18.18,24.12h-64l-18.18-24.12h64Z"/><path class="b" d="M437.77,145.25l18.18,24.12h-64l-18.18-24.12h64Z"/><path class="c" d="M455.95,169.38l18.18,24.12h-64l-18.18-24.12h64Z"/><path class="b" d="M474.13,193.5l18.18,24.12h-64l-18.18-24.12h64Z"/><path class="c" d="M492.31,217.62l18.18,24.12h-64l-18.18-24.12h64Z"/><path class="b" d="M510.49,241.75l18.18,24.12h-64l-18.18-24.12h64Z"/><path class="c" d="M528.67,265.88l18.18,24.12h-64l-18.18-24.12h64Z"/><path class="b" d="M546.85,290l18.18,24.12h-64l-18.18-24.12h64Z"/><path class="c" d="M565.03,314.12l18.18,24.12h-64l-18.18-24.12h64Z"/><path class="b" d="M583.21,338.25l18.18,24.12h-64l-18.18-24.12h64Z"/><path class="c" d="M601.38,362.38l18.18,24.12h-64l-18.18-24.12h64Z"/><path class="b" d="M619.56,386.5l18.18,24.12h-64l-18.18-24.12h64Z"/><path class="c" d="M637.74,410.62l18.18,24.12h-64l-18.18-24.12h64Z"/><path class="b" d="M655.92,434.75l18.18,24.12h-64l-18.18-24.12h64Z"/><path class="c" d="M674.1,458.88l18.18,24.12h-64l-18.18-24.12h64Z"/><path class="b" d="M692.28,483l18.18,24.12h-64l-18.18-24.12h64Z"/><path class="c" d="M710.46,507.12l18.18,24.12h-64l-18.18-24.12h64Z"/><path class="b" d="M728.64,531.25l18.18,24.12h-64l-18.18-24.12h64Z"/><path class="c" d="M746.82,555.38l18.18,24.12h-64l-18.18-24.12h64Z"/><path class="c" d="M264.69,.5l18.18,24.12h-64L200.69,.5h64Z"/><path class="b" d="M282.87,24.62l18.18,24.12h-64l-18.18-24.12h64Z"/><path class="c" d="M301.05,48.75l18.18,24.12h-64l-18.18-24.12h64Z"/><path class="b" d="M319.23,72.88l18.18,24.12h-64l-18.18-24.12h64Z"/><path class="c" d="M337.41,97l18.18,24.12h-64l-18.18-24.12h64Z"/><path class="b" d="M355.59,121.12l18.18,24.12h-64l-18.18-24.12h64Z"/><path class="c" d="M373.77,145.25l18.18,24.12h-64l-18.18-24.12h64Z"/><path class="b" d="M391.95,169.38l18.18,24.12h-64l-18.18-24.12h64Z"/><path class="c" d="M410.13,193.5l18.18,24.12h-64l-18.18-24.12h64Z"/><path class="b" d="M428.31,217.62l18.18,24.12h-64l-18.18-24.12h64Z"/><path class="c" d="M446.49,241.75l18.18,24.12h-64l-18.18-24.12h64Z"/><path class="b" d="M464.67,265.88l18.18,24.12h-64l-18.18-24.12h64Z"/><path class="c" d="M482.85,290l18.18,24.12h-64l-18.18-24.12h64Z"/><path class="b" d="M501.03,314.12l18.18,24.12h-64l-18.18-24.12h64Z"/><path class="c" d="M519.21,338.25l18.18,24.12h-64l-18.18-24.12h64Z"/><path class="b" d="M537.38,362.38l18.18,24.12h-64l-18.18-24.12h64Z"/><path class="c" d="M555.56,386.5l18.18,24.12h-64l-18.18-24.12h64Z"/><path class="b" d="M573.74,410.62l18.18,24.12h-64l-18.18-24.12h64Z"/><path class="c" d="M591.92,434.75l18.18,24.12h-64l-18.18-24.12h64Z"/><path class="b" d="M610.1,458.88l18.18,24.12h-64l-18.18-24.12h64Z"/><path class="c" d="M628.28,483l18.18,24.12h-64l-18.18-24.12h64Z"/><path class="b" d="M646.46,507.12l18.18,24.12h-64l-18.18-24.12h64Z"/><path class="c" d="M664.64,531.25l18.18,24.12h-64l-18.18-24.12h64Z"/><path class="b" d="M682.82,555.38l18.18,24.12h-64l-18.18-24.12h64Z"/><path class="b" d="M200.69,.5l18.18,24.12h-64L136.69,.5h64Z"/><path class="c" d="M218.87,24.62l18.18,24.12h-64l-18.18-24.12h64Z"/><path class="b" d="M237.05,48.75l18.18,24.12h-64l-18.18-24.12h64Z"/><path class="c" d="M255.23,72.88l18.18,24.12h-64l-18.18-24.12h64Z"/><path class="b" d="M273.41,97l18.18,24.12h-64l-18.18-24.12h64Z"/><path class="c" d="M291.59,121.12l18.18,24.12h-64l-18.18-24.12h64Z"/><path class="b" d="M309.77,145.25l18.18,24.12h-64l-18.18-24.12h64Z"/><path class="c" d="M327.95,169.38l18.18,24.12h-64l-18.18-24.12h64Z"/><path class="b" d="M346.13,193.5l18.18,24.12h-64l-18.18-24.12h64Z"/><path class="c" d="M364.31,217.62l18.18,24.12h-64l-18.18-24.12h64Z"/><path class="b" d="M382.49,241.75l18.18,24.12h-64l-18.18-24.12h64Z"/><path class="c" d="M400.67,265.88l18.18,24.12h-64l-18.18-24.12h64Z"/><path class="b" d="M418.85,290l18.18,24.12h-64l-18.18-24.12h64Z"/><path class="c" d="M437.03,314.12l18.18,24.12h-64l-18.18-24.12h64Z"/><path class="b" d="M455.21,338.25l18.18,24.12h-64l-18.18-24.12h64Z"/><path class="c" d="M473.38,362.38l18.18,24.12h-64l-18.18-24.12h64Z"/><path class="b" d="M491.56,386.5l18.18,24.12h-64l-18.18-24.12h64Z"/><path class="c" d="M509.74,410.62l18.18,24.12h-64l-18.18-24.12h64Z"/><path class="b" d="M527.92,434.75l18.18,24.12h-64l-18.18-24.12h64Z"/><path class="c" d="M546.1,458.88l18.18,24.12h-64l-18.18-24.12h64Z"/><path class="b" d="M564.28,483l18.18,24.12h-64l-18.18-24.12h64Z"/><path class="c" d="M582.46,507.12l18.18,24.12h-64l-18.18-24.12h64Z"/><path class="b" d="M600.64,531.25l18.18,24.12h-64l-18.18-24.12h64Z"/><path class="c" d="M618.82,555.38l18.18,24.12h-64l-18.18-24.12h64Z"/></g><g><path class="b" d="M0,64.08H23.28L4.11,36.69H27.39l-9.59-13.69H87.65l9.59,13.69h23.28l19.17,27.38h23.28l9.59,13.69h-23.28l19.18,27.38h-23.28l9.59,13.69H84.91l-9.59-13.69h-23.28l-19.17-27.38H9.59L0,64.08Zm36.98-13.69l9.59,13.69H116.41l-9.59-13.69H36.98Zm19.17,27.38l9.59,13.69h69.85l-9.59-13.69H56.15Z"/><path class="b" d="M47.94,132.54H210.91l19.17,27.39h-93.13l9.59,13.69h23.28l9.59,13.69h23.28l9.59,13.69h46.56l19.17,27.38H115.05l-19.18-27.38h69.85l-9.59-13.69h-23.28l-9.59-13.69h-23.28l-9.59-13.69h-23.28l-19.17-27.39Z"/><path class="b" d="M124.64,242.08h162.97l19.17,27.39h-69.85l28.76,41.08h69.85l19.17,27.39H191.75l-19.17-27.39h69.84l-28.76-41.08h-69.85l-19.18-27.39Z"/><path class="b" d="M201.34,351.61h162.97l19.17,27.39h-93.13l9.59,13.69h23.28l9.59,13.69h23.28l9.59,13.69h46.56l19.18,27.39h-162.97l-19.17-27.39h69.85l-9.59-13.69h-23.28l-9.59-13.69h-23.28l-9.59-13.69h-23.28l-19.18-27.39Z"/><path class="b" d="M278.04,461.15h162.97l19.18,27.38h-139.69l9.59,13.69h139.69l9.59,13.69h-139.69l9.59,13.69h139.69l19.17,27.39h-162.97l-67.11-95.85Z"/></g></svg>