<?xml version="1.0" encoding="UTF-8"?><svg id="a" xmlns="http://www.w3.org/2000/svg" width="40" height="40" xmlns:xlink="http://www.w3.org/1999/xlink" viewBox="0 0 40 40"><defs><style>.c{fill:none;}.d{fill:#fff;}.e{fill:#fc7c83;}.f{fill:#d82e2e;}.g{clip-path:url(#b);}</style><clipPath id="b"><rect class="c" x="1.5" y="4.17" width="37" height="31.66"/></clipPath></defs><g class="g"><g><path class="e" d="M22.55,35.83h-5.1v-1.42h-1.59v-1.42h-1.59v-1.42h-1.59v-1.42h-1.6v-1.42h-1.59v-1.41h-1.6v-1.42h-1.6v-2.36h-1.59v-1.89h-1.6v-1.42H1.5V9.84h1.59v-2.83h1.6v-1.42h2.79v-1.42h7.1v1.42h3.19v1.42h1.6v1.42h1.28v-1.42h1.59v-1.42h3.19v-1.42h7.1v1.42h2.79v1.42h1.59v2.83h1.59v10.41h-1.59v1.42h-1.59v1.89h-1.6v2.36h-1.59v1.42h-1.6v1.42h-1.6v1.42h-1.6v1.42h-1.6v1.42h-1.59v1.42h-1.6v1.42Zm-3.19-1.91h1.28v-1.42h1.6v-1.42h1.59v-1.42h1.6v-1.42h1.59v-1.42h1.59v-1.42h1.6v-1.42h1.59v-2.36h1.59v-1.9h1.6v-1.42h1.59v-6.59h-1.59v-2.83h-1.6v-1.42h-2.79v-1.42h-3.28v1.42h-3.19v1.42h-1.6v1.42h-5.1v-1.42h-1.59v-1.42h-3.19v-1.42h-3.28v1.42h-2.78v1.42h-1.6v2.83h-1.6v6.59h1.6v1.42h1.6v1.9h1.59v2.36h1.6v1.42h1.6v1.42h1.59v1.42h1.6v1.42h1.59v1.42h1.6v1.42h1.6v1.42Z"/><path class="f" d="M37.54,10.79v8.5h-1.59v1.42h-1.6v1.89h-1.59v2.36h-1.59v1.42h-1.6v1.42h-1.6v1.42h-1.6v1.42h-1.59v1.42h-1.6v1.42h-1.6v1.42h-3.19v-1.42h-1.6v-1.42h-1.59v-1.42h-1.6v-1.42h-1.6v-1.42h-1.6v-1.42h-1.6v-1.42h-1.59v-2.36h-1.6v-1.89h-1.6v-1.42h-1.59V10.79h1.59v-2.83h1.6v-1.42h2.79v-1.42h5.19v1.42h3.19v1.42h1.6v1.42h3.19v-1.42h1.6v-1.42h3.19v-1.42h5.19v1.42h2.79v1.42h1.6v2.83h1.59Z"/><path class="d" d="M7.55,12.49h-1.91v4.66h1.91v-4.66Z"/><path class="d" d="M9.46,10.57h-1.91v1.92h1.91v-1.92Z"/></g></g></svg>