<?xml version="1.0" encoding="UTF-8"?><svg id="a" xmlns="http://www.w3.org/2000/svg" width="40" height="40" xmlns:xlink="http://www.w3.org/1999/xlink" viewBox="0 0 40 40"><defs><style>.c{fill:none;}.d{fill:#f5ab00;}.e{fill:#e99600;}.f{fill:#ffe676;}.g{fill:#fccc00;}.h{fill:#d17000;}.i{clip-path:url(#b);}</style><clipPath id="b"><rect class="c" x=".56" y="1.33" width="38.88" height="37.34"/></clipPath></defs><g class="i"><g><polygon class="f" points="20.77 7.55 20.77 7.52 22.33 7.52 22.33 5.97 21.48 5.97 21.48 5.96 22.33 5.96 22.33 4.4 21.48 4.4 21.48 2.84 18.63 2.84 18.63 4.4 17.66 4.4 17.66 5.96 18.63 5.96 18.63 5.97 17.84 5.97 17.67 5.97 17.66 5.97 17.66 7.52 17.67 7.52 17.76 7.52 17.76 7.53 17.66 7.53 17.66 7.53 16.1 7.53 16.1 7.55 15.35 7.55 15.35 10.66 14.55 10.66 14.55 12.21 15.35 12.21 15.35 12.22 14.55 12.22 14.55 13.78 13 13.78 12.99 13.78 11.44 13.78 11.44 13.78 9.88 13.78 9.88 13.78 8.32 13.78 6.77 13.78 5.49 13.78 5.22 13.78 5.22 14.85 5.21 14.85 5.21 13.78 3.66 13.78 3.66 14.85 3.66 14.85 3.66 13.78 2.1 13.78 2.1 14.85 2.1 15.33 2.1 16.89 3.66 16.89 5.21 16.89 5.22 16.89 6.77 16.89 6.77 16.89 6.77 15.33 6.77 15.33 6.77 15.33 6.77 15.33 8.32 15.33 8.32 15.33 8.32 15.33 8.32 15.33 8.32 16.89 8.32 16.89 9.88 16.89 11.44 16.89 12.91 16.89 12.99 16.89 12.99 15.33 12.91 15.33 12.91 15.33 12.99 15.33 13 15.33 14.55 15.33 14.55 15.33 16.08 15.33 16.11 15.33 16.11 13.78 16.1 13.78 16.1 13.78 23.12 13.78 23.12 7.55 20.77 7.55"/><rect class="f" x="16.11" y="13.78" width="1.56" height="1.56"/></g><polygon class="d" points="30.1 13.78 30.1 15.33 28.54 15.33 28.54 18.44 27.03 18.44 27.03 20 25.47 20 25.47 21.56 22.33 21.56 22.33 23.1 20.81 23.1 20.81 24.66 19.23 24.66 19.23 26.22 17.69 26.22 17.69 27.78 16.11 27.78 16.11 29.34 14.56 29.34 14.56 30.88 13 30.88 13 32.44 11.44 32.44 11.44 34.01 9.87 34.01 9.87 35.57 11.44 35.57 11.44 34.81 13 34.81 13 34.05 14.55 34.05 14.55 33.28 16.11 33.28 16.11 32.52 17.67 32.52 17.67 31.76 19.23 31.76 19.23 31.12 20.78 31.12 20.78 31.76 22.33 31.76 22.33 32.52 23.89 32.52 23.89 33.28 25.43 33.28 25.43 34.05 27 34.05 27 34.81 28.55 34.81 28.55 35.57 30.11 35.57 30.11 37.11 31.63 37.11 31.63 32.46 30.11 32.46 30.11 27.78 28.54 27.78 28.54 24.67 30.1 24.67 30.1 23.11 31.65 23.11 31.65 21.56 33.2 21.56 33.2 20 34.76 20 34.76 18.44 36.32 18.44 36.32 16.89 37.87 16.89 37.87 14.56 33.21 14.56 33.21 13.78 30.1 13.78"/><path class="d" d="M9.88,35.56h-1.56v1.56h1.56v-1.56Z"/><g><rect class="g" x="9.88" y="35.56" width="1.56" height="1.56"/><path class="g" d="M28.54,15.33h1.56v-1.56h-4.66v-3.12h-1.56v-1.56h0v-1.56h-3.11v3.12h-1.56v1.56h-1.55v1.56h-1.58v1.56h-3.17v1.56h-4.58v-1.56h-1.56v1.56H3.66v1.56h1.56m0,0v1.56h1.55v1.55h1.55v1.56h1.56v1.56h1.56v3.12h-1.56v1.56h0v3.12h-1.56v3.11h1.56v-1.56h1.56v-1.57h1.56v-1.56h1.56v-1.55h1.55v-1.55h1.57v-1.56h1.53v-1.56h1.55v-1.56h1.56v-1.56h3.14v-1.55h1.56v-1.56h1.52v-3.11m-18.66,3.11h0Zm0,3.11h0"/><rect class="g" x="23.89" y="9.09" width="1.56" height="1.56"/></g><g><rect class="h" x="30.1" y="23.11" width="1.56" height="1.56"/><rect class="h" x="31.66" y="21.56" width="1.56" height="1.56"/><rect class="h" x="33.21" y="20" width="1.56" height="1.56"/><rect class="h" x="34.77" y="18.44" width="1.56" height="1.56"/><rect class="h" x="36.33" y="16.89" width="1.56" height="1.56"/><polygon class="h" points="30.1 26.22 30.1 24.67 28.54 24.67 28.54 26.22 28.54 27.78 30.1 27.78 30.1 26.22"/><polygon class="h" points="31.67 30.9 31.67 29.34 31.67 29.34 31.67 29.06 31.67 27.79 30.11 27.79 30.11 29.06 30.11 29.34 30.11 29.34 30.11 30.9 30.11 32.45 31.67 32.45 31.67 30.9"/><polygon class="h" points="31.64 34.01 31.64 34.01 31.64 35.56 31.64 37.12 33.19 37.12 33.19 35.56 33.19 34.01 33.19 34.01 33.19 32.46 31.64 32.46 31.64 34.01"/><rect class="h" x="28.55" y="35.57" width="1.56" height="1.56"/><rect class="h" x="27" y="34.81" width="1.56" height="1.56"/><polygon class="h" points="25.44 33.28 23.89 33.28 23.89 34.84 25.44 34.84 25.44 35.6 27 35.6 27 34.05 25.44 34.05 25.44 33.28"/><polygon class="h" points="22.33 31.76 20.78 31.76 20.78 31.12 19.22 31.12 19.22 31.76 17.67 31.76 17.67 33.31 19.23 33.31 19.23 32.68 20.77 32.68 20.77 33.31 22.33 33.31 22.33 34.08 23.89 34.08 23.89 32.52 22.33 32.52 22.33 31.76"/><polygon class="h" points="31.66 12.22 30.1 12.22 30.1 13.78 31.66 13.78 32.62 13.78 33.21 13.78 33.21 12.22 32.62 12.22 31.66 12.22"/><polygon class="h" points="39.44 13.68 39.44 13 38.73 13 37.88 13 37.88 13 36.33 13 36.32 13 34.77 13 33.21 13 33.21 14.56 34.77 14.56 36.32 14.56 36.33 14.56 37.88 14.56 37.88 14.56 37.88 14.56 37.88 15.33 37.88 15.33 37.88 16.89 39.44 16.89 39.44 16.38 39.44 16.38 39.44 13.68 39.44 13.68"/><rect class="h" x="9.89" y="35.57" width="1.56" height="1.56"/><polygon class="h" points="13 34.81 11.45 34.81 11.45 36.37 13 36.37 13 35.6 14.56 35.6 14.56 34.05 13 34.05 13 34.81"/><polygon class="h" points="16.11 33.28 14.56 33.28 14.56 34.84 16.11 34.84 16.11 34.08 17.67 34.08 17.67 32.52 16.11 32.52 16.11 33.28"/></g><g><polygon class="e" points="22.33 4.44 22.33 2.88 21.55 2.88 21.55 1.33 20 1.33 20 1.33 18.45 1.33 18.45 2.88 17.67 2.88 17.67 4.44 19.23 4.44 19.23 2.88 20 2.88 20 2.88 20.77 2.88 20.77 4.44 22.33 4.44"/><rect class="e" x="21.55" y="4.44" width="1.56" height="1.56"/><rect class="e" x="22.33" y="6" width="1.56" height="1.56"/><polygon class="e" points="26.22 12.22 26.22 10.66 25.44 10.66 25.44 9.11 24.66 9.11 24.66 7.55 23.11 7.55 23.11 9.11 23.89 9.11 23.89 10.66 24.66 10.66 24.66 12.22 26.22 12.22"/><polygon class="e" points="28.55 12.22 28.55 12.22 27 12.22 27 12.22 25.44 12.22 25.44 13.78 27 13.78 27 13.78 28.55 13.78 28.55 13.78 30.11 13.78 30.11 12.22 28.55 12.22"/><rect class="e" x="16.89" y="4.44" width="1.56" height="1.56"/><rect class="e" x="16.11" y="6" width="1.56" height="1.56"/><polygon class="e" points="15.34 9.11 14.56 9.11 14.56 10.66 13.78 10.66 13.78 12.22 15.33 12.22 15.33 10.66 16.11 10.66 16.11 9.11 16.89 9.11 16.89 7.55 15.34 7.55 15.34 9.11"/><polygon class="e" points="9.9 26.22 9.9 27.78 11.45 27.78 11.45 26.22 11.45 24.67 9.9 24.67 9.9 26.22"/><rect class="e" x="8.34" y="23.11" width="1.56" height="1.56"/><rect class="e" x="6.79" y="21.56" width="1.56" height="1.56"/><rect class="e" x="5.23" y="20" width="1.56" height="1.56"/><rect class="e" x="3.68" y="18.44" width="1.56" height="1.56"/><rect class="e" x="2.12" y="16.89" width="1.56" height="1.56"/><polygon class="e" points="8.33 29.34 8.33 29.34 8.33 30.9 9.89 30.9 9.89 29.34 9.89 29.34 9.89 27.79 8.33 27.79 8.33 29.34"/><rect class="e" x="8.33" y="30.9" width="1.56" height="1.56"/><polygon class="e" points="6.8 34.01 6.8 34.01 6.8 35.56 6.8 37.12 8.36 37.12 8.36 35.56 8.36 34.01 8.36 34.01 8.36 32.46 6.8 32.46 6.8 34.01"/><polygon class="e" points="11.45 12.22 11.45 12.22 9.9 12.22 9.89 12.22 8.34 12.22 8.34 12.22 6.79 12.22 6.78 12.22 6.78 13 5.23 13 5.23 13 3.67 13 3.67 13 2.12 13 2.12 14.56 3.67 14.56 3.67 14.56 5.23 14.56 5.23 14.56 6.78 14.56 6.78 13.78 6.79 13.78 8.34 13.78 8.34 13.78 9.89 13.78 9.9 13.78 11.45 13.78 11.45 13.78 13 13.78 14.56 13.78 14.56 12.22 13 12.22 11.45 12.22"/><rect class="e" x=".56" y="13" width="1.56" height="1.56"/><polygon class="e" points=".56 15.33 .56 15.34 .56 16.89 2.12 16.89 2.12 15.34 2.12 15.33 2.12 14.56 .56 14.56 .56 15.33"/></g></g></svg>