<?xml version="1.0" encoding="UTF-8"?><svg id="a" xmlns="http://www.w3.org/2000/svg" width="762" height="240" viewBox="0 0 762 240"><defs><style>.b{fill:#fff;}.c{fill:#e45293;}.d{fill:#06a5e7;}</style></defs><circle class="c" cx="642" cy="120" r="120"/><path class="d" d="M0,115.18c0-5.05,.13-9.7,.4-13.95,.33-4.32,.93-8.9,1.79-13.75,.93-4.92,2.13-9.37,3.59-13.35,1.46-3.99,3.45-7.94,5.98-11.86,2.52-3.92,5.48-7.31,8.87-10.16,3.39-2.86,7.51-5.35,12.36-7.47,4.85-2.19,10.26-3.79,16.24-4.78l56.3-9.17,4.68,29.99-57.89,10.56c-4.65,.86-8.7,2.26-12.16,4.18-3.39,1.93-5.91,4.05-7.57,6.38-1.66,2.32-2.89,4.45-3.69,6.38-.73,1.86-1.16,3.62-1.3,5.28,.8-1.33,2.13-2.82,3.99-4.48,1.93-1.66,4.42-3.42,7.47-5.28,3.06-1.86,6.91-3.39,11.56-4.58,4.72-1.26,9.7-1.89,14.95-1.89,6.98,0,13.65,1.2,20.03,3.59,6.38,2.39,11.96,5.75,16.74,10.07,4.85,4.25,8.7,9.57,11.56,15.94,2.86,6.31,4.29,13.15,4.29,20.53,0,10.16-2.52,19.53-7.57,28.1-5.05,8.57-12.12,15.41-21.23,20.53-9.1,5.05-19.23,7.57-30.39,7.57-19.6,0-34.35-5.78-44.24-17.34C4.92,154.64,0,137.63,0,115.18Zm37.97,12.65c0,6.31,2.03,11.69,6.08,16.14,4.12,4.45,9.23,6.68,15.35,6.68s11.39-2.16,15.25-6.48c3.85-4.38,5.78-9.83,5.78-16.34s-2.06-11.69-6.18-16.14c-4.05-4.52-9.13-6.78-15.25-6.78s-11.39,2.19-15.25,6.58c-3.85,4.38-5.78,9.83-5.78,16.34h0Zm88.19,31.79l24.11-17.74c3.32,3.72,6.68,6.48,10.07,8.27,3.39,1.79,7.37,2.69,11.96,2.69,5.11,0,9.63-1.43,13.55-4.28,3.92-2.86,6.78-6.71,8.57-11.56h-29.79v-22.32h29.79c-1.79-4.78-4.65-8.6-8.57-11.46-3.85-2.92-8.24-4.39-13.15-4.39-9.3,0-16.77,3.65-22.42,10.96l-23.02-18.93c10.36-15.08,25.58-22.62,45.64-22.62,11.36,0,21.59,2.62,30.69,7.87,9.1,5.25,16.11,12.26,21.02,21.03,4.98,8.7,7.47,18.24,7.47,28.6s-2.49,20.06-7.47,28.9c-4.92,8.84-11.82,15.88-20.73,21.12-8.84,5.18-18.67,7.77-29.5,7.77-20.79,0-36.87-7.97-48.23-23.92h0Zm121.57-44.44c0-5.05,.13-9.7,.4-13.95,.33-4.32,.93-8.9,1.79-13.75,.93-4.92,2.13-9.37,3.59-13.35,1.46-3.99,3.45-7.94,5.98-11.86,2.52-3.92,5.48-7.31,8.87-10.16,3.39-2.86,7.51-5.35,12.36-7.47,4.85-2.19,10.26-3.79,16.24-4.78l56.3-9.17,4.68,29.99-57.9,10.56c-4.65,.86-8.7,2.26-12.16,4.18-3.39,1.93-5.91,4.05-7.57,6.38-1.66,2.32-2.89,4.45-3.69,6.38-.73,1.86-1.16,3.62-1.3,5.28,.8-1.33,2.13-2.82,3.99-4.48,1.93-1.66,4.42-3.42,7.47-5.28,3.05-1.86,6.91-3.39,11.56-4.58,4.72-1.26,9.7-1.89,14.95-1.89,6.97,0,13.65,1.2,20.03,3.59,6.38,2.39,11.96,5.75,16.74,10.07,4.85,4.25,8.7,9.57,11.56,15.94,2.86,6.31,4.28,13.15,4.28,20.53,0,10.16-2.53,19.53-7.57,28.1-5.05,8.57-12.12,15.41-21.22,20.53-9.1,5.05-19.23,7.57-30.39,7.57-19.6,0-34.35-5.78-44.24-17.34-9.83-11.56-14.75-28.57-14.75-51.02h0Zm37.96,12.66c0,6.31,2.03,11.69,6.08,16.14,4.12,4.45,9.23,6.68,15.35,6.68s11.39-2.16,15.25-6.48c3.85-4.38,5.78-9.83,5.78-16.34s-2.06-11.69-6.18-16.14c-4.05-4.52-9.13-6.78-15.25-6.78s-11.39,2.19-15.25,6.58c-3.85,4.38-5.78,9.83-5.78,16.34h0Zm96.56,53.01V70.43h37.57v55.31l36.77-55.3h35.67v110.41h-37.57v-55.3l-36.67,55.3h-35.77Z"/><path class="b" d="M575.19,180V91.25h19.38v9.82c5.44-7.4,12.54-11.09,21.29-11.09s15.81,3.19,21.93,9.56c6.12,6.38,9.18,15.05,9.18,26.01s-3.06,19.51-9.18,25.88c-6.04,6.29-13.35,9.43-21.93,9.43s-15.6-3.4-21.29-10.2v29.33h-19.38Zm23.84-40.8c3.23,3.49,7.18,5.23,11.86,5.23s8.63-1.74,11.86-5.23c3.23-3.57,4.85-8.2,4.85-13.9s-1.61-10.03-4.85-13.52c-3.23-3.57-7.18-5.36-11.86-5.36s-8.63,1.79-11.86,5.36c-3.15,3.49-4.72,8.08-4.72,13.77s1.57,10.07,4.72,13.64Zm78.52,41.18c-6.12,0-11.86-1.57-17.21-4.72l6.5-14.03c2.97,1.79,5.74,2.68,8.29,2.68,3.06,0,5.31-1.49,6.76-4.46l-26.78-68.6h20.53l15.56,46.54,14.92-46.54h20.15l-26.27,70c-2.64,7.05-5.61,11.99-8.93,14.79-3.32,2.89-7.82,4.34-13.52,4.34h0Z"/><circle class="b" cx="532.9" cy="147.07" r="21.71"/></svg>