<?xml version="1.0" encoding="UTF-8"?><svg id="a" xmlns="http://www.w3.org/2000/svg" width="314" height="40" viewBox="0 0 314 40"><defs><style>.b{fill:#8d51d2;}</style></defs><polygon class="b" points="74.16 31.51 82.65 31.51 82.65 8.61 93.86 8.61 93.86 .74 74.16 .74 74.16 31.51 74.16 31.51"/><path class="b" d="M62.48,20.37c-.52,2.75-3.08,4.63-5.86,4.28h0c-3.68,.17-6.81-2.68-6.98-6.36,0-.21,0-.41,0-.62h20.93s.14-1.58,.14-3.21C70.71,5.16,65.2,.05,56.6,.05c-9.09,0-15.42,6.63-15.42,16.09s6.24,16.28,15.33,16.28c8.44,0,14.12-4.88,14.28-12.05h-8.3Zm-5.77-13.25h-.09c2.89-.4,5.56,1.61,5.96,4.49,0,.05,.01,.1,.02,.16h-12.49c.87-2.89,3.6-4.81,6.61-4.65Z"/><polygon class="b" points="26.38 .74 20.55 19.6 14.87 .74 5.49 .74 .61 31.51 8.4 31.51 11.36 12.37 17.1 31.51 23.78 31.51 29.73 12.02 32.57 31.51 40.48 31.51 35.62 .74 26.38 .74"/><path class="b" d="M109.42,0c-9.05,0-14.19,4.44-13.96,12h8.79c0-3.21,1.67-4.65,5.19-4.65,2.51,0,4.09,1.05,4.09,2.63,0,1.02-.39,1.42-1.93,1.86l-6.98,1.93c-6.79,1.83-9.82,4.65-9.82,9.3,0,5.51,4,9.19,9.88,9.19,3.85,.39,7.52-1.76,9.07-5.3v4.65h8.12V11.07c-.12-7.42-4.81-11.07-12.47-11.07Zm4.19,17.95c.09,3.85-2.96,7.05-6.81,7.14-.13,0-.27,0-.4,0h0c-2.16,0-3.21-1.05-3.21-2.58s.75-2.32,3.07-3.04l7.35-2.07v.56Z"/><g><path class="b" d="M277.09,20.34c-.52,2.75-3.08,4.63-5.86,4.28h0c-3.68,.17-6.81-2.68-6.98-6.36,0-.21,0-.41,0-.62h20.93s.14-1.58,.14-3.21C285.33,5.13,279.81,0,271.21,0c-9.09,0-15.42,6.63-15.42,16.09s6.24,16.28,15.33,16.28c8.44,0,14.12-4.88,14.28-12.05h-8.3Zm-5.77-13.25h-.09c2.89-.4,5.56,1.61,5.96,4.49,0,.05,.01,.1,.02,.16h-12.49c.87-2.89,3.6-4.81,6.61-4.65Z"/><polygon class="b" points="287.31 .84 287.31 8.7 296.11 8.7 296.11 31.6 304.6 31.6 304.6 8.7 313.39 8.7 313.39 .84 287.31 .84"/><polygon class="b" points="256.75 .84 247.4 .84 240.8 12.25 237.42 12.25 237.42 .84 228.93 .84 228.93 31.6 237.42 31.6 237.42 19.81 240.75 19.81 247.85 31.6 257.43 31.6 248.05 15.91 256.75 .84"/><path class="b" d="M180.97,.09c-9.05,0-14.21,4.44-13.96,12h8.79c0-3.21,1.67-4.65,5.19-4.65,2.51,0,4.09,1.07,4.09,2.65,0,1-.39,1.4-1.95,1.84l-6.98,1.93c-6.77,1.86-9.79,4.65-9.79,9.3,0,5.49,4,9.19,9.88,9.19,3.86,.42,7.54-1.75,9.05-5.32v4.65h8.14V11.07c-.12-7.33-4.81-10.98-12.47-10.98Zm4.17,17.95c.09,3.85-2.96,7.05-6.81,7.14-.14,0-.28,0-.42,0h0c-2.12,0-3.19-1.05-3.19-2.6s.77-2.33,3.09-2.98l7.33-2.07v.51Z"/><path class="b" d="M214.07,.09c-3.64-.23-7,1.94-8.3,5.35V.79h-8.49V40h8.49v-12.93c1.34,3.36,4.69,5.47,8.3,5.23,6.98,0,11.63-5.44,11.63-16.09S221.12,.09,214.07,.09Zm-2.35,24.35h0c-3.87-.01-6.19-2.66-6.19-8.23s2.33-8.26,6.16-8.26,5.74,2.67,5.74,8.26-1.95,8.22-5.72,8.23Z"/><polygon class="b" points="150.2 .84 144.37 19.67 138.69 .84 129.31 .84 124.43 31.6 132.22 31.6 135.18 12.46 140.92 31.6 147.6 31.6 153.55 12.11 156.39 31.6 164.3 31.6 159.44 .84 150.2 .84"/></g></svg>