<svg width="118" height="118" viewBox="0 0 118 118" fill="none" xmlns="http://www.w3.org/2000/svg">
<g clip-path="url(#clip0_595_18577)">
<path d="M114.736 36.8726L81.1273 3.26417C77.0835 -0.779367 70.5042 -0.778906 66.4604 3.26417L3.26417 66.4606C-0.779137 70.5044 -0.779137 77.0837 3.26417 81.1275L36.8726 114.736H36.8729C38.8945 116.758 41.5504 117.768 44.2061 117.768C46.8617 117.768 49.5176 116.758 51.5395 114.736L114.736 51.5395C116.694 49.5808 117.774 46.9763 117.774 44.2061C117.774 41.4359 116.695 38.8316 114.736 36.8726ZM47.9546 111.151C45.8878 113.217 42.5248 113.217 40.458 111.151L6.84953 77.5424C4.78294 75.4755 4.78294 72.1126 6.84953 70.046L63.8001 13.0952L104.905 54.2L47.9546 111.151ZM111.151 47.9544L108.49 50.6149L67.3855 9.51004L70.0458 6.84953C72.1126 4.78317 75.4753 4.78271 77.5419 6.84953L111.15 40.458C112.152 41.4592 112.703 42.7903 112.703 44.2061C112.703 45.6221 112.152 46.953 111.151 47.9544Z" fill="#8654CC"/>
<path d="M30.0319 80.3578C29.0418 79.3677 27.4366 79.3677 26.4465 80.3578C25.4566 81.3479 25.4566 82.9531 26.4465 83.9432L34.1254 91.6221C34.6204 92.1171 35.2692 92.3646 35.918 92.3646C36.5667 92.3646 37.2155 92.1171 37.7105 91.6221C38.7004 90.632 38.7004 89.0268 37.7105 88.0367L30.0319 80.3578Z" fill="#8654CC"/>
<path d="M47.4975 98.0986C46.787 96.2521 44.1052 95.9905 43.0472 97.6607C41.9133 99.2788 43.1801 101.649 45.1559 101.602C46.9022 101.654 48.2165 99.6938 47.4975 98.0986Z" fill="#8654CC"/>
<path d="M21.2727 71.8739C20.6569 70.2371 18.3384 69.782 17.1404 71.0511C15.5484 72.6013 16.7113 75.409 18.9337 75.3791C20.6797 75.4298 21.995 73.468 21.2727 71.8739Z" fill="#8654CC"/>
<path d="M34.3815 9.08391C34.5631 8.55429 34.5679 7.96361 34.3877 7.43353C34.1651 6.77924 33.6647 6.22704 33.0358 5.94034L20.4288 0.226617C19.1539 -0.351163 17.6512 0.213941 17.0732 1.48911C16.4952 2.76451 17.0605 4.26669 18.3357 4.8447L24.3117 7.55315C19.1755 9.39273 14.5104 12.3457 10.5711 16.2848C4.83082 22.0251 1.18461 29.3062 0.0265185 37.3409C-0.173296 38.7267 0.78821 40.012 2.17401 40.2119C2.29661 40.2296 2.41853 40.2381 2.53883 40.2381C3.77874 40.2381 4.86286 39.3276 5.04493 38.0644C6.80823 25.8314 15.5471 15.7393 27.0508 11.9949L23.4615 18.5579C22.7897 19.7863 23.2409 21.3267 24.4693 21.9986C24.8556 22.2097 25.2723 22.3099 25.6837 22.3099C26.5804 22.3099 27.4495 21.8331 27.9102 20.9907L34.2137 9.46579C34.2801 9.34364 34.3363 9.21573 34.3815 9.08391Z" fill="#8654CC"/>
<path d="M115.826 77.788C114.44 77.588 113.155 78.5497 112.955 79.9355C111.192 92.1687 102.453 102.261 90.949 106.005L94.5385 99.4422C95.2106 98.2138 94.7593 96.6734 93.5309 96.0016C92.3028 95.3298 90.7619 95.781 90.0903 97.0094L83.7868 108.534C83.4522 109.145 83.3872 109.897 83.6087 110.557C83.8274 111.209 84.3206 111.759 84.9435 112.049C84.9507 112.052 84.9571 112.057 84.9645 112.06L97.5715 117.774C97.9112 117.928 98.2666 118.001 98.6164 118.001C99.5811 118.001 100.503 117.447 100.927 116.511C101.505 115.236 100.94 113.734 99.6643 113.156L93.6883 110.447C98.8245 108.608 103.49 105.655 107.429 101.716C113.169 95.9753 116.815 88.6942 117.974 80.6594C118.173 79.2732 117.212 77.9879 115.826 77.788Z" fill="#8654CC"/>
</g>
<defs>
<clipPath id="clip0_595_18577">
<rect width="118" height="118" fill="white"/>
</clipPath>
</defs>
</svg>
